<svg width="29" height="16" viewBox="0 0 29 16" fill="none" xmlns="http://www.w3.org/2000/svg">
<path d="M20 0.999999C19.9063 1.09296 19.8319 1.20356 19.7811 1.32542C19.7303 1.44728 19.7042 1.57799 19.7042 1.71C19.7042 1.84201 19.7303 1.97272 19.7811 2.09458C19.8319 2.21644 19.9063 2.32704 20 2.42L24.6 7.02H1.06C0.794781 7.02 0.540427 7.12536 0.352891 7.31289C0.165354 7.50043 0.0599976 7.75478 0.0599976 8.02C0.0599976 8.28522 0.165354 8.53957 0.352891 8.72711C0.540427 8.91464 0.794781 9.02 1.06 9.02H24.58L20 13.59C19.8137 13.7774 19.7092 14.0308 19.7092 14.295C19.7092 14.5592 19.8137 14.8126 20 15C20.1874 15.1862 20.4408 15.2908 20.705 15.2908C20.9692 15.2908 21.2226 15.1862 21.41 15L27.77 8.64C27.8556 8.55787 27.9237 8.45928 27.9702 8.35016C28.0168 8.24103 28.0408 8.12363 28.0408 8.005C28.0408 7.88637 28.0168 7.76897 27.9702 7.65984C27.9237 7.55072 27.8556 7.45213 27.77 7.37L21.42 0.999999C21.327 0.906271 21.2164 0.831877 21.0946 0.781108C20.9727 0.730339 20.842 0.704201 20.71 0.704201C20.578 0.704201 20.4473 0.730339 20.3254 0.781108C20.2036 0.831877 20.093 0.906271 20 0.999999Z" fill="white"/>
</svg>
