<svg width="15" height="15" viewBox="0 0 15 15" fill="none" xmlns="http://www.w3.org/2000/svg">
<path d="M14.7158 5.58984C14.8301 5.49902 15 5.58398 15 5.72754V11.7188C15 12.4951 14.3701 13.125 13.5938 13.125H1.40625C0.629883 13.125 0 12.4951 0 11.7188V5.73047C0 5.58398 0.166992 5.50195 0.28418 5.59277C0.94043 6.10254 1.81055 6.75 4.79883 8.9209C5.41699 9.37207 6.45996 10.3213 7.5 10.3154C8.5459 10.3242 9.60938 9.35449 10.2041 8.9209C13.1924 6.75 14.0596 6.09961 14.7158 5.58984ZM7.5 9.375C8.17969 9.38672 9.1582 8.51953 9.65039 8.16211C13.5381 5.34082 13.834 5.09473 14.7305 4.3916C14.9004 4.25977 15 4.05469 15 3.83789V3.28125C15 2.50488 14.3701 1.875 13.5938 1.875H1.40625C0.629883 1.875 0 2.50488 0 3.28125V3.83789C0 4.05469 0.0996094 4.25684 0.269531 4.3916C1.16602 5.0918 1.46191 5.34082 5.34961 8.16211C5.8418 8.51953 6.82031 9.38672 7.5 9.375Z" fill="black"/>
</svg>
