<svg width="101" height="25" viewBox="0 0 101 25" fill="none" xmlns="http://www.w3.org/2000/svg">
<path d="M3.83439 18.1439C3.31792 18.1439 2.84572 18.048 2.41779 17.8561C1.99723 17.6643 1.64308 17.395 1.35534 17.0482C1.07497 16.7014 0.886825 16.2993 0.790909 15.8419L1.66522 15.6316L1.78696 15.6538C1.86812 15.9489 2.0083 16.2182 2.20751 16.4617C2.40672 16.6978 2.64651 16.8859 2.92688 17.0261C3.21462 17.1663 3.51713 17.2364 3.83439 17.2364C4.18116 17.2364 4.48366 17.181 4.7419 17.0704C5.00751 16.9597 5.2141 16.8047 5.36166 16.6055C5.5166 16.4063 5.59407 16.1776 5.59407 15.9194C5.59407 15.5726 5.49447 15.307 5.29526 15.1225C5.10343 14.9381 4.83412 14.7979 4.48735 14.702L2.99328 14.2925C2.3809 14.1228 1.91607 13.8535 1.59881 13.4846C1.28155 13.1157 1.12293 12.6914 1.12293 12.2119C1.12293 11.7987 1.22991 11.4372 1.44387 11.1273C1.65784 10.81 1.95296 10.5628 2.32925 10.3858C2.71291 10.2013 3.1556 10.1091 3.65731 10.1091C4.13689 10.1091 4.5722 10.2013 4.96324 10.3858C5.36166 10.5628 5.6863 10.8137 5.93715 11.1383C6.19539 11.463 6.36509 11.8466 6.44625 12.2893L5.59407 12.4775L5.47233 12.4553C5.37642 12.0126 5.16245 11.6622 4.83044 11.404C4.5058 11.1457 4.11107 11.0166 3.64625 11.0166C3.1888 11.0166 2.81989 11.1273 2.53953 11.3486C2.25916 11.5626 2.11897 11.8503 2.11897 12.2119C2.11897 12.4996 2.21858 12.7394 2.41779 12.9312C2.617 13.1231 2.90474 13.2706 3.28103 13.3739L4.76403 13.7834C5.3469 13.9457 5.79697 14.204 6.11423 14.5581C6.43149 14.9123 6.59012 15.3476 6.59012 15.864C6.59012 16.3215 6.47576 16.7199 6.24704 17.0593C6.01831 17.3987 5.69737 17.6643 5.28419 17.8561C4.87101 18.048 4.38775 18.1439 3.83439 18.1439ZM12.2926 18.1439C11.7761 18.1439 11.3039 18.048 10.876 17.8561C10.4554 17.6643 10.1013 17.395 9.81353 17.0482C9.53316 16.7014 9.34501 16.2993 9.2491 15.8419L10.1234 15.6316L10.2451 15.6538C10.3263 15.9489 10.4665 16.2182 10.6657 16.4617C10.8649 16.6978 11.1047 16.8859 11.3851 17.0261C11.6728 17.1663 11.9753 17.2364 12.2926 17.2364C12.6393 17.2364 12.9419 17.181 13.2001 17.0704C13.4657 16.9597 13.6723 16.8047 13.8199 16.6055C13.9748 16.4063 14.0523 16.1776 14.0523 15.9194C14.0523 15.5726 13.9527 15.307 13.7534 15.1225C13.5616 14.9381 13.2923 14.7979 12.9455 14.702L11.4515 14.2925C10.8391 14.1228 10.3743 13.8535 10.057 13.4846C9.73974 13.1157 9.58111 12.6914 9.58111 12.2119C9.58111 11.7987 9.6881 11.4372 9.90206 11.1273C10.116 10.81 10.4112 10.5628 10.7874 10.3858C11.1711 10.2013 11.6138 10.1091 12.1155 10.1091C12.5951 10.1091 13.0304 10.2013 13.4214 10.3858C13.8199 10.5628 14.1445 10.8137 14.3953 11.1383C14.6536 11.463 14.8233 11.8466 14.9044 12.2893L14.0523 12.4775L13.9305 12.4553C13.8346 12.0126 13.6206 11.6622 13.2886 11.404C12.964 11.1457 12.5693 11.0166 12.1044 11.0166C11.647 11.0166 11.2781 11.1273 10.9977 11.3486C10.7173 11.5626 10.5772 11.8503 10.5772 12.2119C10.5772 12.4996 10.6768 12.7394 10.876 12.9312C11.0752 13.1231 11.3629 13.2706 11.7392 13.3739L13.2222 13.7834C13.8051 13.9457 14.2552 14.204 14.5724 14.5581C14.8897 14.9123 15.0483 15.3476 15.0483 15.864C15.0483 16.3215 14.9339 16.7199 14.7052 17.0593C14.4765 17.3987 14.1556 17.6643 13.7424 17.8561C13.3292 18.048 12.8459 18.1439 12.2926 18.1439ZM20.0203 18.1439C19.5703 18.1439 19.1755 18.0516 18.8361 17.8672C18.5041 17.6827 18.2422 17.4319 18.0504 17.1146C17.8659 16.79 17.7737 16.4137 17.7737 15.9858V15.4656H18.5927L18.7144 15.5209V15.9858C18.7144 16.3621 18.8325 16.6646 19.0686 16.8933C19.312 17.1146 19.6293 17.2253 20.0203 17.2253C20.404 17.2253 20.7139 17.1109 20.95 16.8822C21.1935 16.6461 21.3152 16.3215 21.3152 15.9083V10.253H22.2559V15.8862C22.2559 16.3362 22.1637 16.731 21.9792 17.0704C21.7948 17.4097 21.5328 17.6754 21.1935 17.8672C20.8614 18.0516 20.4704 18.1439 20.0203 18.1439Z" fill="white"/>
<path d="M42.564 10.52C42.98 10.52 43.344 10.588 43.656 10.724C43.976 10.852 44.248 11.032 44.472 11.264C44.704 11.488 44.896 11.736 45.048 12.008C45.096 12.104 45.076 12.164 44.988 12.188L44.328 12.344C44.272 12.368 44.22 12.344 44.172 12.272C44.012 12.04 43.852 11.852 43.692 11.708C43.54 11.564 43.376 11.456 43.2 11.384C43.024 11.304 42.832 11.264 42.624 11.264C42.216 11.264 41.856 11.368 41.544 11.576C41.24 11.776 41.004 12.068 40.836 12.452C40.668 12.836 40.584 13.292 40.584 13.82C40.584 14.356 40.668 14.816 40.836 15.2C41.012 15.584 41.252 15.876 41.556 16.076C41.868 16.276 42.232 16.376 42.648 16.376C43.032 16.376 43.364 16.28 43.644 16.088C43.924 15.896 44.18 15.616 44.412 15.248C44.436 15.208 44.456 15.188 44.472 15.188C44.496 15.18 44.528 15.184 44.568 15.2L45.084 15.392C45.14 15.416 45.156 15.468 45.132 15.548C45.012 15.756 44.872 15.956 44.712 16.148C44.552 16.34 44.364 16.508 44.148 16.652C43.94 16.796 43.704 16.912 43.44 17C43.176 17.08 42.884 17.12 42.564 17.12C41.972 17.12 41.448 16.984 40.992 16.712C40.544 16.432 40.192 16.048 39.936 15.56C39.68 15.064 39.552 14.492 39.552 13.844C39.552 13.188 39.68 12.612 39.936 12.116C40.2 11.62 40.556 11.232 41.004 10.952C41.46 10.664 41.98 10.52 42.564 10.52ZM46.5959 17C46.4919 17 46.4399 16.948 46.4399 16.844V8.252C46.4399 8.148 46.4839 8.096 46.5719 8.096H47.2799C47.3679 8.096 47.4119 8.144 47.4119 8.24V11.444C47.4119 11.484 47.4199 11.508 47.4359 11.516C47.4519 11.524 47.4799 11.512 47.5199 11.48C47.7999 11.264 48.0559 11.084 48.2879 10.94C48.5279 10.796 48.7599 10.692 48.9839 10.628C49.2159 10.556 49.4679 10.52 49.7399 10.52C50.3639 10.52 50.8399 10.688 51.1679 11.024C51.4959 11.352 51.6599 11.792 51.6599 12.344V16.808C51.6599 16.936 51.5999 17 51.4799 17H50.8079C50.7519 17 50.7119 16.988 50.6879 16.964C50.6639 16.932 50.6519 16.892 50.6519 16.844V12.56C50.6519 12.168 50.5519 11.864 50.3519 11.648C50.1519 11.424 49.8359 11.312 49.4039 11.312C49.1719 11.312 48.9519 11.352 48.7439 11.432C48.5439 11.504 48.3399 11.612 48.1319 11.756C47.9239 11.892 47.6959 12.068 47.4479 12.284V16.82C47.4479 16.94 47.3839 17 47.2559 17H46.5959ZM57.0957 16.232C56.7997 16.52 56.4757 16.74 56.1237 16.892C55.7797 17.044 55.3917 17.12 54.9597 17.12C54.3357 17.12 53.8437 16.96 53.4837 16.64C53.1317 16.32 52.9557 15.9 52.9557 15.38C52.9557 14.956 53.0757 14.592 53.3157 14.288C53.5557 13.976 53.9117 13.732 54.3837 13.556C54.8557 13.372 55.4357 13.26 56.1237 13.22L57.0597 13.148C57.1077 13.14 57.1517 13.124 57.1917 13.1C57.2317 13.076 57.2517 13.032 57.2517 12.968V12.644C57.2517 12.212 57.1157 11.872 56.8437 11.624C56.5797 11.368 56.2197 11.24 55.7637 11.24C55.4117 11.24 55.0917 11.32 54.8037 11.48C54.5237 11.64 54.2717 11.88 54.0477 12.2C54.0157 12.24 53.9877 12.268 53.9637 12.284C53.9477 12.292 53.9157 12.288 53.8677 12.272L53.2197 12.056C53.1957 12.04 53.1757 12.02 53.1597 11.996C53.1517 11.972 53.1637 11.928 53.1957 11.864C53.4357 11.448 53.7717 11.12 54.2037 10.88C54.6437 10.64 55.1797 10.52 55.8117 10.52C56.3477 10.52 56.7917 10.604 57.1437 10.772C57.5037 10.932 57.7717 11.168 57.9477 11.48C58.1317 11.784 58.2237 12.148 58.2237 12.572V16.82C58.2237 16.892 58.2117 16.94 58.1877 16.964C58.1637 16.988 58.1237 17 58.0677 17H57.4557C57.3997 17 57.3597 16.984 57.3357 16.952C57.3117 16.912 57.2957 16.864 57.2877 16.808L57.2757 16.256C57.2517 16.144 57.1917 16.136 57.0957 16.232ZM57.2517 13.952C57.2517 13.816 57.1957 13.752 57.0837 13.76L56.2917 13.832C55.9237 13.848 55.5957 13.896 55.3077 13.976C55.0197 14.048 54.7757 14.144 54.5757 14.264C54.3757 14.384 54.2237 14.528 54.1197 14.696C54.0157 14.856 53.9637 15.044 53.9637 15.26C53.9637 15.612 54.0837 15.888 54.3237 16.088C54.5717 16.28 54.9037 16.376 55.3197 16.376C55.5757 16.376 55.8197 16.332 56.0517 16.244C56.2917 16.148 56.4997 16.028 56.6757 15.884C56.8597 15.732 56.9997 15.576 57.0957 15.416C57.1997 15.256 57.2517 15.1 57.2517 14.948V13.952ZM62.1699 16.328C62.5139 16.328 62.8419 16.236 63.1539 16.052C63.4739 15.86 63.7899 15.604 64.1019 15.284V10.82C64.1019 10.7 64.1659 10.64 64.2939 10.64H64.9539C65.0659 10.64 65.1219 10.696 65.1219 10.808L65.0979 16.844C65.0979 16.948 65.0539 17 64.9659 17H64.2699C64.1819 17 64.1379 16.956 64.1379 16.868V16.16C64.1379 16.12 64.1299 16.096 64.1139 16.088C64.0979 16.08 64.0699 16.092 64.0299 16.124C63.5899 16.5 63.1979 16.76 62.8539 16.904C62.5179 17.048 62.1819 17.12 61.8459 17.12C61.4779 17.12 61.1499 17.044 60.8619 16.892C60.5739 16.74 60.3459 16.528 60.1779 16.256C60.0099 15.976 59.9259 15.652 59.9259 15.284V10.832C59.9259 10.704 59.9859 10.64 60.1059 10.64H60.7779C60.8819 10.64 60.9339 10.696 60.9339 10.808V15.02C60.9339 15.412 61.0419 15.728 61.2579 15.968C61.4819 16.208 61.7859 16.328 62.1699 16.328ZM70.1752 10.64C70.2152 10.64 70.2432 10.652 70.2592 10.676C70.2832 10.7 70.2952 10.728 70.2952 10.76V11.276C70.2952 11.356 70.2552 11.396 70.1752 11.396H68.8072C68.7432 11.396 68.7112 11.428 68.7112 11.492V16.832C68.7112 16.944 68.6632 17 68.5672 17H67.8352C67.7472 17 67.7032 16.948 67.7032 16.844V11.48C67.7032 11.424 67.6752 11.396 67.6192 11.396H66.4432C66.3632 11.396 66.3232 11.356 66.3232 11.276V10.76C66.3232 10.728 66.3312 10.7 66.3472 10.676C66.3712 10.652 66.4072 10.64 66.4552 10.64H67.5952C67.6672 10.64 67.7032 10.6 67.7032 10.52V9.644C67.7032 9.14 67.8272 8.756 68.0752 8.492C68.3232 8.228 68.6992 8.096 69.2032 8.096H70.1992C70.3032 8.096 70.3552 8.144 70.3552 8.24V8.708C70.3552 8.748 70.3432 8.78 70.3192 8.804C70.3032 8.82 70.2712 8.828 70.2232 8.828H69.3832C69.1352 8.828 68.9552 8.908 68.8432 9.068C68.7392 9.22 68.6872 9.428 68.6872 9.692V10.532C68.6872 10.604 68.7232 10.64 68.7952 10.64H70.1752ZM74.722 10.64C74.762 10.64 74.79 10.652 74.806 10.676C74.83 10.7 74.842 10.728 74.842 10.76V11.276C74.842 11.356 74.802 11.396 74.722 11.396H73.354C73.29 11.396 73.258 11.428 73.258 11.492V16.832C73.258 16.944 73.21 17 73.114 17H72.382C72.294 17 72.25 16.948 72.25 16.844V11.48C72.25 11.424 72.222 11.396 72.166 11.396H70.99C70.91 11.396 70.87 11.356 70.87 11.276V10.76C70.87 10.728 70.878 10.7 70.894 10.676C70.918 10.652 70.954 10.64 71.002 10.64H72.142C72.214 10.64 72.25 10.6 72.25 10.52V9.644C72.25 9.14 72.374 8.756 72.622 8.492C72.87 8.228 73.246 8.096 73.75 8.096H74.746C74.85 8.096 74.902 8.144 74.902 8.24V8.708C74.902 8.748 74.89 8.78 74.866 8.804C74.85 8.82 74.818 8.828 74.77 8.828H73.93C73.682 8.828 73.502 8.908 73.39 9.068C73.286 9.22 73.234 9.428 73.234 9.692V10.532C73.234 10.604 73.27 10.64 73.342 10.64H74.722ZM76.4905 14.216C76.4905 14.608 76.5825 14.968 76.7665 15.296C76.9585 15.616 77.2105 15.872 77.5225 16.064C77.8425 16.256 78.1985 16.352 78.5905 16.352C78.9905 16.352 79.3465 16.272 79.6585 16.112C79.9705 15.944 80.2385 15.692 80.4625 15.356C80.4945 15.324 80.5185 15.308 80.5345 15.308C80.5585 15.3 80.5905 15.304 80.6305 15.32L81.1345 15.572C81.2065 15.612 81.2145 15.668 81.1585 15.74C80.9425 16.06 80.7025 16.324 80.4385 16.532C80.1825 16.732 79.8945 16.88 79.5745 16.976C79.2545 17.072 78.8945 17.12 78.4945 17.12C77.9025 17.12 77.3785 16.984 76.9225 16.712C76.4665 16.44 76.1065 16.06 75.8425 15.572C75.5785 15.084 75.4465 14.52 75.4465 13.88C75.4465 13.184 75.5785 12.588 75.8425 12.092C76.1145 11.588 76.4785 11.2 76.9345 10.928C77.3985 10.656 77.9145 10.52 78.4825 10.52C79.0665 10.52 79.5745 10.648 80.0065 10.904C80.4385 11.16 80.7745 11.532 81.0145 12.02C81.2545 12.508 81.3745 13.096 81.3745 13.784C81.3745 13.84 81.3665 13.896 81.3505 13.952C81.3425 14.008 81.2905 14.036 81.1945 14.036H76.5985C76.5665 14.036 76.5385 14.056 76.5145 14.096C76.4985 14.128 76.4905 14.168 76.4905 14.216ZM80.1625 13.376C80.2505 13.376 80.3065 13.368 80.3305 13.352C80.3545 13.328 80.3665 13.28 80.3665 13.208C80.3665 12.864 80.2905 12.544 80.1385 12.248C79.9945 11.944 79.7825 11.7 79.5025 11.516C79.2305 11.332 78.8985 11.24 78.5065 11.24C78.0745 11.24 77.7105 11.344 77.4145 11.552C77.1185 11.752 76.8945 12.016 76.7425 12.344C76.5905 12.672 76.5145 13.016 76.5145 13.376H80.1625ZM84.9512 16.328C85.2952 16.328 85.6232 16.236 85.9352 16.052C86.2552 15.86 86.5712 15.604 86.8832 15.284V10.82C86.8832 10.7 86.9472 10.64 87.0752 10.64H87.7352C87.8472 10.64 87.9032 10.696 87.9032 10.808L87.8792 16.844C87.8792 16.948 87.8352 17 87.7472 17H87.0512C86.9632 17 86.9192 16.956 86.9192 16.868V16.16C86.9192 16.12 86.9112 16.096 86.8952 16.088C86.8792 16.08 86.8512 16.092 86.8112 16.124C86.3712 16.5 85.9792 16.76 85.6352 16.904C85.2992 17.048 84.9632 17.12 84.6272 17.12C84.2592 17.12 83.9312 17.044 83.6432 16.892C83.3552 16.74 83.1272 16.528 82.9592 16.256C82.7912 15.976 82.7072 15.652 82.7072 15.284V10.832C82.7072 10.704 82.7672 10.64 82.8872 10.64H83.5592C83.6632 10.64 83.7152 10.696 83.7152 10.808V15.02C83.7152 15.412 83.8232 15.728 84.0392 15.968C84.2632 16.208 84.5672 16.328 84.9512 16.328ZM89.9084 17C89.8524 17 89.8084 16.988 89.7764 16.964C89.7524 16.932 89.7404 16.892 89.7404 16.844V10.796C89.7404 10.692 89.7844 10.64 89.8724 10.64H90.5684C90.6564 10.64 90.7004 10.684 90.7004 10.772V11.552C90.7004 11.6 90.7124 11.628 90.7364 11.636C90.7604 11.644 90.7924 11.628 90.8324 11.588C91.0404 11.34 91.2444 11.14 91.4444 10.988C91.6524 10.828 91.8604 10.712 92.0684 10.64C92.2764 10.56 92.4844 10.52 92.6924 10.52C92.9724 10.52 93.1124 10.572 93.1124 10.676V11.396C93.1124 11.476 93.0764 11.508 93.0044 11.492C92.9324 11.484 92.8484 11.476 92.7524 11.468C92.6644 11.46 92.5684 11.456 92.4644 11.456C92.2884 11.456 92.1004 11.496 91.9004 11.576C91.7004 11.648 91.5124 11.752 91.3364 11.888C91.1684 12.024 91.0284 12.176 90.9164 12.344C90.8044 12.512 90.7484 12.68 90.7484 12.848V16.82C90.7484 16.94 90.6884 17 90.5684 17H89.9084ZM98.033 12.044C97.873 11.804 97.649 11.608 97.361 11.456C97.073 11.304 96.729 11.228 96.329 11.228C95.897 11.228 95.537 11.32 95.249 11.504C94.969 11.688 94.829 11.936 94.829 12.248C94.829 12.416 94.893 12.576 95.021 12.728C95.149 12.872 95.409 13.008 95.801 13.136L97.325 13.592C97.877 13.744 98.273 13.964 98.513 14.252C98.761 14.54 98.885 14.872 98.885 15.248C98.885 15.624 98.773 15.952 98.549 16.232C98.325 16.512 98.017 16.732 97.625 16.892C97.233 17.044 96.789 17.12 96.293 17.12C95.661 17.12 95.109 16.996 94.637 16.748C94.165 16.492 93.829 16.176 93.629 15.8C93.605 15.76 93.593 15.724 93.593 15.692C93.593 15.66 93.613 15.632 93.653 15.608L94.121 15.344C94.161 15.32 94.197 15.312 94.229 15.32C94.261 15.32 94.285 15.332 94.301 15.356C94.437 15.564 94.593 15.744 94.769 15.896C94.953 16.048 95.169 16.168 95.417 16.256C95.673 16.344 95.969 16.388 96.305 16.388C96.609 16.38 96.885 16.336 97.133 16.256C97.381 16.176 97.577 16.06 97.721 15.908C97.865 15.748 97.937 15.564 97.937 15.356C97.937 15.14 97.849 14.956 97.673 14.804C97.497 14.644 97.193 14.504 96.761 14.384L95.525 14.036C94.925 13.876 94.501 13.66 94.253 13.388C94.013 13.116 93.889 12.796 93.881 12.428C93.881 12.044 93.985 11.712 94.193 11.432C94.401 11.144 94.689 10.92 95.057 10.76C95.433 10.6 95.861 10.52 96.341 10.52C96.877 10.52 97.353 10.624 97.769 10.832C98.193 11.032 98.513 11.3 98.729 11.636C98.753 11.668 98.765 11.7 98.765 11.732C98.765 11.756 98.749 11.78 98.717 11.804L98.213 12.08C98.181 12.096 98.149 12.104 98.117 12.104C98.093 12.096 98.065 12.076 98.033 12.044Z" fill="white"/>
<line x1="31.75" y1="25" x2="31.75" stroke="white" stroke-opacity="0.5" strokeWidth="0.5"/>
</svg>
