<svg width="250" height="250" viewBox="0 0 250 250" fill="none" xmlns="http://www.w3.org/2000/svg">
<circle cx="125" cy="125" r="125" fill="black"/>
<g clip-path="url(#clip0_573_9)">
<path d="M124.855 178.068C118.92 169.464 113.895 162.306 109.638 156.242C102.08 145.477 96.9416 138.157 93.4253 132.31C90.7348 127.837 89.1674 124.493 88.2421 121.369C87.3273 118.28 86.975 115.184 86.975 111.125C86.975 89.8482 104.223 72.6 125.5 72.6C146.777 72.6 164.025 89.8482 164.025 111.125C164.025 115.184 163.673 118.28 162.758 121.369C161.833 124.493 160.265 127.837 157.575 132.31C154.058 138.157 148.92 145.477 141.362 156.242C137.106 162.305 132.082 169.461 126.149 178.063C125.836 178.513 125.162 178.512 124.85 178.062L121.069 180.679L124.855 178.068Z" stroke="white" stroke-width="9.2"/>
</g>
<defs>
<clipPath id="clip0_573_9">
<rect width="115" height="115" fill="white" transform="translate(68 68)"/>
</clipPath>
</defs>
</svg>
