<svg width="110" height="154" viewBox="0 0 110 154" fill="none" xmlns="http://www.w3.org/2000/svg">
<path fill-rule="evenodd" clip-rule="evenodd" d="M44.677 0.0543871L44.031 0.108631L42.5235 0.26476L41.0161 0.420747L39.3651 0.708324L37.714 0.995758L36.3471 1.33887L34.9802 1.68198L33.3322 2.25082L31.6842 2.81981L30.4639 3.34201L29.2436 3.86407L28.0233 4.52317L26.8029 5.18213L25.436 6.07772L24.0691 6.97332L22.8952 7.92071L21.7213 8.86811L20.5698 10.022L19.4186 11.1759L18.573 12.2107L17.7275 13.2455L16.8301 14.6087L15.9326 15.972L15.0973 17.694L14.2621 19.4161L13.7617 20.9228L13.2614 22.4296L12.8981 24.1516L12.5347 25.8736L12.3758 28.0048L12.2168 30.1361L12.3733 32.0946L12.5297 34.0532L12.8177 35.443L13.1057 36.8327L13.5348 38.1696L13.964 39.5063L14.737 41.0848L15.5101 42.6633L16.1965 43.7396L16.8831 44.8158L17.9174 46.1073L18.952 47.3989L20.4369 48.8465L21.9217 50.2942L23.0652 51.1955L24.2087 52.0967L25.4544 52.934L26.7001 53.7712L27.8283 54.4395L28.9565 55.1076L31.0382 56.1477L33.1199 57.188L34.9145 57.9144L36.7091 58.6409L38.6472 59.3048L40.5854 59.9686L42.5235 60.5275L44.4617 61.0865L45.9691 61.4497L47.4766 61.8127L50.4915 62.474L53.5064 63.1353L56.2342 63.9218L58.9619 64.7083L61.4744 65.6482L63.9868 66.588L65.566 67.3256L67.1453 68.0631L68.6913 68.8809L70.2374 69.6989L71.4909 70.514L72.7444 71.329L74.0898 72.3382L75.4351 73.3473L76.6022 74.467L77.7692 75.5867L80.3175 75.5918L82.8658 75.5969V75.4656V75.3345L81.0405 73.4407L79.2152 71.5469L77.7026 70.3341L76.19 69.1216L74.6107 68.0743L73.0315 67.0272L71.1651 66.006L69.2988 64.985L67.3253 64.1211L65.3517 63.2574L63.5208 62.5579L61.6897 61.8584L60.0156 61.3365L58.3414 60.8144L57.1443 60.4678L55.947 60.1214L54.5114 59.763L53.0757 59.4045L50.0608 58.7322L47.0459 58.0599L44.3899 57.2965L41.7339 56.533L40.1547 55.9668L38.5754 55.4005L36.9962 54.7793L35.417 54.1581L32.9763 52.9271L30.5357 51.6962L29.1304 50.809L27.7251 49.9221L26.3309 48.8837L24.9366 47.8453L23.0596 45.9717L21.1826 44.0983L20.3967 43.0221L19.611 41.9458L19.0737 41.0567L18.5364 40.1674L17.9859 38.9759L17.4353 37.7843L17.0009 36.421L16.5665 35.0577L16.3382 33.6945L16.1098 32.3312L16.0182 30.8962L15.9268 29.4612L16.0983 27.6674L16.2699 25.8736L16.5602 24.5236L16.8505 23.1735L17.3501 21.7391L17.8495 20.3048L18.5474 18.9147L19.2453 17.5246L20.2817 15.9753L21.3181 14.4261L23.0556 12.6723L24.793 10.9186L26.0133 10.0031L27.2336 9.08767L28.9951 8.05991L30.7566 7.03215L32.5125 6.3122L34.2684 5.5924L35.417 5.22518L36.5655 4.8581L38.0694 4.49691L39.5734 4.13557L41.5868 3.81442L43.6003 3.49326L47.8355 3.49828L52.0707 3.50345L53.9371 3.82288L55.8035 4.14232L57.4545 4.55962L59.1055 4.97678L60.5412 5.46712L61.9769 5.95761L63.2433 6.48383L64.5097 7.0102L65.6839 7.59898L66.8581 8.18777L68.0067 8.84042L69.1552 9.49306L71.0349 10.7626L72.9146 12.032L74.4099 13.2294L75.905 14.4268L77.9187 16.2899L79.9323 18.1531L81.0401 16.8118L82.148 15.4705V15.3587V15.2468L81.1789 14.3024L80.2099 13.3578L78.8951 12.213L77.5803 11.0681L75.8761 9.76988L74.172 8.47176L72.5135 7.39536L70.8549 6.31909L69.2873 5.47042L67.7195 4.62176L66.7146 4.14547L65.7096 3.66905L64.0708 3.03334L62.4319 2.39777L60.7754 1.8958L59.1186 1.39383L57.0304 0.974376L54.9421 0.554921L53.1475 0.331632L51.3529 0.108344L48.338 0.0542436L45.3231 0L44.677 0.0543871ZM57.1674 40.2238V41.8741H81.5737H105.98L105.98 81.3729L105.979 120.872L105.835 123.168L105.691 125.464L105.545 126.612L105.398 127.76L105.031 129.625L104.664 131.491L103.978 133.572L103.292 135.652L102.497 137.236L101.701 138.82L100.799 140.178L99.8958 141.536L98.3079 143.124L96.7201 144.712L95.2764 145.667L93.8326 146.623L92.6158 147.193L91.3988 147.763L90.0767 148.206L88.7545 148.648L87.4254 148.925L86.0961 149.203L84.6777 149.37L83.2591 149.537L80.5142 149.459L77.7692 149.382L76.3605 149.156L74.9519 148.931L73.2738 148.555L71.5958 148.18L69.9448 147.681L68.2938 147.182L66.9299 146.68L65.566 146.179L63.2768 145.045L60.9877 143.912L60.9704 143.944L60.9532 143.975L60.2606 145.809L59.5681 147.643L59.6324 147.707L59.6966 147.771L61.6264 148.695L63.5561 149.618L65.4216 150.29L67.2873 150.962L69.0825 151.456L70.878 151.949L72.6008 152.298L74.3236 152.647L76.1182 152.9L77.9128 153.153L81.6455 153.15L85.3783 153.147L87.1729 152.836L88.9674 152.525L90.3667 152.161L91.7657 151.798L93.0944 151.275L94.423 150.753L95.2534 150.337L96.0836 149.922L97.048 149.333L98.0122 148.743L99.0463 147.966L100.081 147.189L101.286 145.992L102.491 144.795L103.493 143.453L104.494 142.11L105.023 141.228L105.552 140.346L106.335 138.717L107.118 137.087L107.768 135.141L108.417 133.195L108.771 131.625L109.124 130.056L109.414 128.047L109.703 126.038L109.851 123.67L109.999 121.302L109.999 80.2249L110 39.1475H109.856H109.713V38.8605V38.5735H83.4401H57.1674V40.2238ZM2.53209 40.2597L2.62942 41.3718L2.84233 42.6633L3.05511 43.9548L3.41173 45.2803L3.76849 46.6059L4.25317 47.8756L4.73785 49.1451L5.26804 50.1974L5.79809 51.2496L6.5923 52.5329L7.38651 53.8163L8.54209 55.2714L9.6978 56.7265L11.1438 58.1526L12.5898 59.5787L14.0108 60.7108L15.4317 61.8429L16.8822 62.8151L18.3325 63.7875L19.7551 64.6082L21.1778 65.4288L22.77 66.2279L24.3623 67.0269L26.0133 67.7373L27.6643 68.4477L29.3494 69.0774L31.0345 69.7069L33.3693 70.438L35.7041 71.169L38.1447 71.7944L40.5854 72.4197L42.6671 72.8549L44.7488 73.2903L46.8305 73.804L48.9123 74.3176L50.9101 74.9027L52.908 75.4876L54.4993 76.0497L56.0906 76.6118L57.8134 77.2835L59.5362 77.9554L62.1922 79.2739L64.8482 80.5925L66.6428 81.7203L68.4374 82.8482L69.9434 83.9895L71.4494 85.1307L73.1554 86.7855L74.8616 88.4403L75.7817 89.5883L76.7018 90.7363L77.3262 91.6691L77.9507 92.6019L78.5896 93.7598L79.2286 94.9177L79.7448 96.1276L80.261 97.3374L80.6284 98.4854L80.9956 99.6334L81.282 100.997L81.5684 102.36L81.7346 103.928L81.9007 105.495L81.8188 108.018L81.7368 110.54L81.5123 111.662L81.2876 112.784L80.997 113.922L80.7063 115.059L80.3322 116.1L79.9579 117.141L79.13 118.791L78.3021 120.441L77.4517 121.733L76.6012 123.024L75.5004 124.335L74.3997 125.647L73.2849 126.691L72.1701 127.735L71.0984 128.59L70.0267 129.444L68.8013 130.266L67.576 131.089L65.8721 132.034L64.1684 132.98L62.3547 133.727L60.5412 134.475L59.1055 134.964L57.6698 135.454L55.7317 135.944L53.7935 136.434L52.1425 136.718L50.4915 137.002L48.338 137.244L46.1845 137.486L42.8107 137.493L39.4368 137.5L38.0012 137.318L36.5655 137.136L34.9145 136.854L33.2635 136.572L31.2535 136.06L29.2436 135.549L27.449 134.904L25.6544 134.26L24.2905 133.683L22.9266 133.106L21.491 132.388L20.0553 131.67L18.9068 131.019L17.7582 130.367L15.7483 129.039L13.7384 127.71L12.0368 126.381L10.3352 125.051L8.18418 122.97L6.03297 120.889L4.78895 119.445L3.54482 118.002L3.25782 117.611L2.97083 117.22L1.48549 118.798L0 120.375L0.834991 121.413L1.66982 122.45L4.11491 124.895L6.56 127.34L8.49816 128.882L10.4363 130.423L12.4737 131.784L14.5109 133.145L16.7064 134.361L18.902 135.576L21.345 136.637L23.788 137.699L25.7262 138.352L27.6643 139.005L29.6035 139.506L31.5427 140.007L33.1209 140.307L34.6991 140.606L36.2784 140.829L37.8576 141.052L41.7339 141.132L45.6102 141.212L47.6202 141.047L49.6301 140.881L51.1375 140.664L52.645 140.447L54.0807 140.171L55.5163 139.896L57.1783 139.468L58.8402 139.039L60.6101 138.446L62.38 137.852L63.892 137.207L65.4041 136.561L66.6538 135.934L67.9037 135.306L69.2474 134.495L70.5909 133.683L71.7394 132.885L72.8879 132.088L73.6776 131.434L74.4672 130.781L75.7896 129.584L77.1118 128.388L78.4545 126.782L79.7971 125.177L80.4501 124.244L81.103 123.311L81.8823 121.948L82.6615 120.585L83.1972 119.4L83.7327 118.216L84.2227 116.863L84.7128 115.51L85.0733 114.029L85.434 112.549L85.6574 111.023L85.8808 109.498L85.8801 106.503L85.8795 103.508L85.6016 101.642L85.3237 99.7769L84.9524 98.3614L84.581 96.9458L84.0691 95.5632L83.5571 94.1804L82.8587 92.7444L82.1602 91.3082L81.0258 89.5873L79.8914 87.8663L78.7328 86.4908L77.5744 85.1155L76.1937 83.8095L74.8132 82.5035L73.2045 81.2605L71.5958 80.0175L69.5859 78.737L67.576 77.4566L64.8482 76.1009L62.1204 74.7454L59.9497 73.8862L57.7788 73.027L56.5041 72.5844L55.2292 72.1417L53.1475 71.5096L51.0658 70.8773L49.1276 70.3716L47.1895 69.8659L44.2463 69.2216L41.3032 68.5773L38.8626 67.924L36.4219 67.2708L34.412 66.6119L32.4021 65.953L30.0332 65.0201L27.6643 64.0872L25.2955 62.9044L22.9266 61.7215L21.5628 60.8935L20.1989 60.0656L18.8353 59.1176L17.4717 58.1697L16.5382 57.3925L15.6047 56.6153L14.476 55.5228L13.3474 54.4304L12.3129 53.2009L11.2783 51.9713L10.4817 50.7614L9.68488 49.5514L9.01917 48.2256L8.35329 46.8999L8.00989 45.9878L7.66634 45.0756L7.37517 44.0129L7.08389 42.9503L6.85834 41.6588L6.63265 40.3673L6.63223 39.7574L6.63179 39.1475H4.53328H2.43461L2.53209 40.2597Z" fill="white"/>
</svg>
