<svg width="12" height="13" viewBox="0 0 12 13" fill="none" xmlns="http://www.w3.org/2000/svg">
<g clip-path="url(#clip0_18_6)">
<path d="M2.97619 11.3036H8.92857V2.00303C8.92857 1.38687 8.42867 0.886963 7.8125 0.886963H4.09226C3.4761 0.886963 2.97619 1.38687 2.97619 2.00303V11.3036ZM4.46429 2.37506H7.44048V3.11911H4.46429V2.37506ZM11.9048 4.23518V10.1876C11.9048 10.8037 11.4049 11.3036 10.7887 11.3036H9.67262V3.11911H10.7887C11.4049 3.11911 11.9048 3.61901 11.9048 4.23518ZM2.23214 11.3036H1.11607C0.499907 11.3036 0 10.8037 0 10.1876V4.23518C0 3.61901 0.499907 3.11911 1.11607 3.11911H2.23214V11.3036Z" fill="black"/>
</g>
<defs>
<clipPath id="clip0_18_6">
<rect width="11.9048" height="11.9048" fill="white" transform="translate(0 0.142822)"/>
</clipPath>
</defs>
</svg>
