<svg width="12" height="13" viewBox="0 0 12 13" fill="none" xmlns="http://www.w3.org/2000/svg">
<path d="M5.95247 6.0952C7.59635 6.0952 8.92867 4.76289 8.92867 3.11901C8.92867 1.47513 7.59635 0.142822 5.95247 0.142822C4.30859 0.142822 2.97628 1.47513 2.97628 3.11901C2.97628 4.76289 4.30859 6.0952 5.95247 6.0952ZM8.03581 6.83925H7.64751C7.13132 7.07642 6.55701 7.21128 5.95247 7.21128C5.34794 7.21128 4.77595 7.07642 4.25744 6.83925H3.86914C2.14388 6.83925 0.744141 8.23899 0.744141 9.96425V10.9315C0.744141 11.5477 1.24405 12.0476 1.86021 12.0476H10.0447C10.6609 12.0476 11.1608 11.5477 11.1608 10.9315V9.96425C11.1608 8.23899 9.76107 6.83925 8.03581 6.83925Z" fill="black"/>
</svg>
