<svg width="23" height="22" viewBox="0 0 23 22" fill="none" xmlns="http://www.w3.org/2000/svg">
<path d="M19.0781 3.24121C17.0322 1.19043 14.3076 0.0625 11.4121 0.0625C5.43555 0.0625 0.572266 4.92578 0.572266 10.9023C0.572266 12.8115 1.07031 14.6768 2.01758 16.3223L0.479492 21.9375L6.22656 20.4287C7.80859 21.293 9.59082 21.7471 11.4072 21.7471H11.4121C17.3838 21.7471 22.3545 16.8838 22.3545 10.9072C22.3545 8.01172 21.124 5.29199 19.0781 3.24121ZM11.4121 19.9209C9.79102 19.9209 8.2041 19.4863 6.82227 18.666L6.49512 18.4707L3.08691 19.3643L3.99512 16.0391L3.78027 15.6973C2.87695 14.2617 2.40332 12.6064 2.40332 10.9023C2.40332 5.93652 6.44629 1.89355 11.417 1.89355C13.8242 1.89355 16.085 2.83105 17.7842 4.53516C19.4834 6.23926 20.5283 8.5 20.5234 10.9072C20.5234 15.8779 16.3779 19.9209 11.4121 19.9209ZM16.3535 13.1729C16.085 13.0361 14.752 12.3818 14.5029 12.2939C14.2539 12.2012 14.0732 12.1572 13.8926 12.4307C13.7119 12.7041 13.1943 13.3096 13.0332 13.4951C12.877 13.6758 12.7158 13.7002 12.4473 13.5635C10.8555 12.7676 9.81055 12.1426 8.76074 10.3408C8.48242 9.8623 9.03906 9.89648 9.55664 8.86133C9.64453 8.68066 9.60059 8.52441 9.53223 8.3877C9.46387 8.25098 8.92188 6.91797 8.69727 6.37598C8.47754 5.84863 8.25293 5.92188 8.08691 5.91211C7.93066 5.90234 7.75 5.90234 7.56934 5.90234C7.38867 5.90234 7.0957 5.9707 6.84668 6.23926C6.59766 6.5127 5.89941 7.16699 5.89941 8.5C5.89941 9.83301 6.87109 11.1221 7.00293 11.3027C7.13965 11.4834 8.91211 14.2178 11.6318 15.3945C13.3506 16.1367 14.0244 16.2002 14.8838 16.0732C15.4062 15.9951 16.4854 15.4189 16.71 14.7842C16.9346 14.1494 16.9346 13.6074 16.8662 13.4951C16.8027 13.373 16.6221 13.3047 16.3535 13.1729Z" fill="white"/>
</svg>
