<svg width="18" height="18" viewBox="0 0 18 18" fill="none" xmlns="http://www.w3.org/2000/svg">
<path d="M15.1289 2.79297C13.4922 1.15234 11.3125 0.25 8.99609 0.25C4.21484 0.25 0.324219 4.14062 0.324219 8.92188C0.324219 10.4492 0.722656 11.9414 1.48047 13.2578L0.25 17.75L4.84766 16.543C6.11328 17.2344 7.53906 17.5977 8.99219 17.5977H8.99609C13.7734 17.5977 17.75 13.707 17.75 8.92578C17.75 6.60938 16.7656 4.43359 15.1289 2.79297ZM8.99609 16.1367C7.69922 16.1367 6.42969 15.7891 5.32422 15.1328L5.0625 14.9766L2.33594 15.6914L3.0625 13.0312L2.89062 12.7578C2.16797 11.6094 1.78906 10.2852 1.78906 8.92188C1.78906 4.94922 5.02344 1.71484 9 1.71484C10.9258 1.71484 12.7344 2.46484 14.0938 3.82812C15.4531 5.19141 16.2891 7 16.2852 8.92578C16.2852 12.9023 12.9688 16.1367 8.99609 16.1367ZM12.9492 10.7383C12.7344 10.6289 11.668 10.1055 11.4688 10.0352C11.2695 9.96094 11.125 9.92578 10.9805 10.1445C10.8359 10.3633 10.4219 10.8477 10.293 10.9961C10.168 11.1406 10.0391 11.1602 9.82422 11.0508C8.55078 10.4141 7.71484 9.91406 6.875 8.47266C6.65234 8.08984 7.09766 8.11719 7.51172 7.28906C7.58203 7.14453 7.54687 7.01953 7.49219 6.91016C7.4375 6.80078 7.00391 5.73438 6.82422 5.30078C6.64844 4.87891 6.46875 4.9375 6.33594 4.92969C6.21094 4.92188 6.06641 4.92188 5.92188 4.92188C5.77734 4.92188 5.54297 4.97656 5.34375 5.19141C5.14453 5.41016 4.58594 5.93359 4.58594 7C4.58594 8.06641 5.36328 9.09766 5.46875 9.24219C5.57812 9.38672 6.99609 11.5742 9.17188 12.5156C10.5469 13.1094 11.0859 13.1602 11.7734 13.0586C12.1914 12.9961 13.0547 12.5352 13.2344 12.0273C13.4141 11.5195 13.4141 11.0859 13.3594 10.9961C13.3086 10.8984 13.1641 10.8438 12.9492 10.7383Z" fill="black"/>
</svg>
