<svg width="18" height="19" viewBox="0 0 18 19" fill="none" xmlns="http://www.w3.org/2000/svg">
<path d="M15.2559 3.29297C13.6191 1.65234 11.4395 0.75 9.12305 0.75C4.3418 0.75 0.451172 4.64062 0.451172 9.42188C0.451172 10.9492 0.849609 12.4414 1.60742 13.7578L0.376953 18.25L4.97461 17.043C6.24023 17.7344 7.66602 18.0977 9.11914 18.0977H9.12305C13.9004 18.0977 17.877 14.207 17.877 9.42578C17.877 7.10938 16.8926 4.93359 15.2559 3.29297ZM9.12305 16.6367C7.82617 16.6367 6.55664 16.2891 5.45117 15.6328L5.18945 15.4766L2.46289 16.1914L3.18945 13.5312L3.01758 13.2578C2.29492 12.1094 1.91602 10.7852 1.91602 9.42188C1.91602 5.44922 5.15039 2.21484 9.12695 2.21484C11.0527 2.21484 12.8613 2.96484 14.2207 4.32812C15.5801 5.69141 16.416 7.5 16.4121 9.42578C16.4121 13.4023 13.0957 16.6367 9.12305 16.6367ZM13.0762 11.2383C12.8613 11.1289 11.7949 10.6055 11.5957 10.5352C11.3965 10.4609 11.252 10.4258 11.1074 10.6445C10.9629 10.8633 10.5488 11.3477 10.4199 11.4961C10.2949 11.6406 10.166 11.6602 9.95117 11.5508C8.67773 10.9141 7.8418 10.4141 7.00195 8.97266C6.7793 8.58984 7.22461 8.61719 7.63867 7.78906C7.70898 7.64453 7.67383 7.51953 7.61914 7.41016C7.56445 7.30078 7.13086 6.23438 6.95117 5.80078C6.77539 5.37891 6.5957 5.4375 6.46289 5.42969C6.33789 5.42188 6.19336 5.42188 6.04883 5.42188C5.9043 5.42188 5.66992 5.47656 5.4707 5.69141C5.27148 5.91016 4.71289 6.43359 4.71289 7.5C4.71289 8.56641 5.49023 9.59766 5.5957 9.74219C5.70508 9.88672 7.12305 12.0742 9.29883 13.0156C10.6738 13.6094 11.2129 13.6602 11.9004 13.5586C12.3184 13.4961 13.1816 13.0352 13.3613 12.5273C13.541 12.0195 13.541 11.5859 13.4863 11.4961C13.4355 11.3984 13.291 11.3438 13.0762 11.2383Z" fill="#B5C656"/>
</svg>
